<svg width="32" height="33" viewBox="0 0 32 33" fill="none" xmlns="http://www.w3.org/2000/svg">
<path d="M12.9143 4.5C15.2785 4.5 17.5459 5.43918 19.2176 7.11093C20.8894 8.78269 21.8286 11.0501 21.8286 13.4143C21.8286 15.4928 21.1116 17.4133 19.9178 18.9356C19.7918 19.0962 19.8004 19.3266 19.9447 19.471C20.0182 19.5444 20.1178 19.5857 20.2217 19.5857H20.6011C20.948 19.5857 21.2806 19.7235 21.5259 19.9688L26.9714 25.4143C27.5395 25.9824 27.5395 26.9034 26.9714 27.4714C26.4034 28.0395 25.4824 28.0395 24.9143 27.4714L19.4688 22.0259C19.2235 21.7806 19.0857 21.448 19.0857 21.1011V20.7215C19.0857 20.6177 19.0445 20.5182 18.9711 20.4448C18.8268 20.3005 18.5962 20.2921 18.4357 20.4183C16.8641 21.6536 14.9202 22.3284 12.9143 22.3286C10.5501 22.3286 8.28269 21.3894 6.61093 19.7176C4.93918 18.0459 4 15.7785 4 13.4143C4 11.0501 4.93918 8.78269 6.61093 7.11093C8.28269 5.43918 10.5501 4.5 12.9143 4.5ZM12.9143 7.24286C9.48571 7.24286 6.74286 9.98571 6.74286 13.4143C6.74286 16.8429 9.48571 19.5857 12.9143 19.5857C16.3429 19.5857 19.0857 16.8429 19.0857 13.4143C19.0857 9.98571 16.3429 7.24286 12.9143 7.24286Z" fill="#0061DF"/>
<path d="M12.9143 4.5C15.2785 4.5 17.5459 5.43918 19.2176 7.11093C20.8894 8.78269 21.8286 11.0501 21.8286 13.4143C21.8286 15.4928 21.1116 17.4133 19.9178 18.9356C19.7918 19.0962 19.8004 19.3266 19.9447 19.471C20.0182 19.5444 20.1178 19.5857 20.2217 19.5857H20.6011C20.948 19.5857 21.2806 19.7235 21.5259 19.9688L26.9714 25.4143C27.5395 25.9824 27.5395 26.9034 26.9714 27.4714C26.4034 28.0395 25.4824 28.0395 24.9143 27.4714L19.4688 22.0259C19.2235 21.7806 19.0857 21.448 19.0857 21.1011V20.7215C19.0857 20.6177 19.0445 20.5182 18.9711 20.4448C18.8268 20.3005 18.5962 20.2921 18.4357 20.4183C16.8641 21.6536 14.9202 22.3284 12.9143 22.3286C10.5501 22.3286 8.28269 21.3894 6.61093 19.7176C4.93918 18.0459 4 15.7785 4 13.4143C4 11.0501 4.93918 8.78269 6.61093 7.11093C8.28269 5.43918 10.5501 4.5 12.9143 4.5ZM12.9143 7.24286C9.48571 7.24286 6.74286 9.98571 6.74286 13.4143C6.74286 16.8429 9.48571 19.5857 12.9143 19.5857C16.3429 19.5857 19.0857 16.8429 19.0857 13.4143C19.0857 9.98571 16.3429 7.24286 12.9143 7.24286Z" stroke="#0061DF"/>
</svg>
